<?xml version="1.0" standalone="no"?>
<!DOCTYPE svg PUBLIC "-//W3C//DTD SVG 20010904//EN"
 "http://www.w3.org/TR/2001/REC-SVG-20010904/DTD/svg10.dtd">
<svg version="1.0" xmlns="http://www.w3.org/2000/svg"
 width="80.000000pt" height="80.000000pt" viewBox="0 0 80.000000 80.000000"
 preserveAspectRatio="xMidYMid meet">

<g transform="translate(0.000000,80.000000) scale(0.100000,-0.100000)"
fill="#000000" stroke="none">
<path d="M0 400 l0 -400 400 0 400 0 0 400 0 400 -400 0 -400 0 0 -400z m425
219 c22 -6 54 -22 72 -35 l32 -24 13 27 c7 14 19 28 25 31 19 6 135 -114 131
-135 -2 -9 -18 -26 -36 -36 -30 -18 -39 -19 -80 -8 -74 18 -92 19 -92 6 0 -7
14 -18 30 -25 17 -7 30 -16 30 -21 0 -17 -65 -9 -98 11 -29 18 -33 25 -28 48
5 22 4 24 -4 10 -16 -27 -30 -21 -30 12 0 40 -25 52 -69 34 -19 -8 -31 -17
-28 -21 4 -3 13 0 21 6 8 7 25 11 38 9 29 -4 36 -40 13 -74 -14 -22 -14 -26 0
-40 23 -23 19 -25 -33 -23 -46 2 -48 3 -44 30 4 24 1 27 -17 22 -26 -7 -79
-66 -97 -109 -22 -52 -18 -110 8 -128 45 -32 109 -16 122 30 10 33 -33 70 -49
44 -3 -5 -1 -10 4 -10 6 0 11 -9 11 -21 0 -15 -5 -20 -22 -17 -33 4 -36 43 -4
63 28 19 58 9 76 -25 15 -27 13 -35 -16 -69 -21 -26 -33 -31 -68 -31 -79 0
-126 70 -126 187 0 90 29 152 102 219 76 69 131 85 213 63z"/>
<path d="M560 531 c-5 -11 -7 -27 -4 -35 8 -20 52 -32 65 -19 7 7 2 9 -15 6
-31 -6 -45 20 -27 48 6 11 7 19 1 19 -5 0 -14 -9 -20 -19z"/>
<path d="M606 514 c-4 -10 -1 -14 6 -12 15 5 23 28 10 28 -5 0 -13 -7 -16 -16z"/>
</g>
</svg>
